<?xml version="1.0" standalone="no"?>
<!DOCTYPE svg PUBLIC "-//W3C//DTD SVG 20010904//EN"
 "http://www.w3.org/TR/2001/REC-SVG-20010904/DTD/svg10.dtd">
<svg version="1.0" xmlns="http://www.w3.org/2000/svg"
 width="900.000000pt" height="745.000000pt" viewBox="0 0 900.000000 745.000000"
 preserveAspectRatio="xMidYMid meet">

<g transform="translate(0.000000,745.000000) scale(0.100000,-0.100000)"
fill="#000000" stroke="none">
<path d="M4082 6748 l3 -293 38 -3 37 -3 0 295 0 296 -40 0 -40 0 2 -292z"/>
<path d="M4200 6744 l0 -295 38 3 37 3 3 293 2 292 -40 0 -40 0 0 -296z"/>
<path d="M4320 6745 l0 -295 35 0 35 0 0 295 0 295 -35 0 -35 0 0 -295z"/>
<path d="M4440 6745 l0 -295 35 0 35 0 0 295 0 295 -35 0 -35 0 0 -295z"/>
<path d="M4552 6748 l3 -293 38 -3 37 -3 0 295 0 296 -40 0 -40 0 2 -292z"/>
<path d="M4670 6745 l0 -296 38 3 37 3 0 290 0 290 -37 3 -38 3 0 -296z"/>
<path d="M4790 6745 l0 -295 35 0 35 0 0 295 0 295 -35 0 -35 0 0 -295z"/>
<path d="M3855 6996 c-952 -198 -1749 -806 -2184 -1666 -166 -326 -270 -669
-316 -1032 -18 -146 -30 -517 -17 -536 6 -9 21 -11 49 -6 l40 6 6 237 c6 248
22 385 71 598 198 860 767 1596 1556 2016 270 143 551 238 912 307 l56 11 4
45 3 44 -35 -1 c-19 0 -85 -11 -145 -23z"/>
<path d="M4910 6976 c0 -50 -9 -45 120 -66 106 -18 337 -80 450 -120 623 -224
1137 -619 1509 -1159 l48 -70 33 34 c18 19 30 40 27 48 -3 8 -52 77 -110 153
-414 550 -982 943 -1635 1135 -132 38 -369 89 -417 89 -23 0 -25 -4 -25 -44z"/>
<path d="M3744 6833 c-62 -18 -88 -54 -78 -108 3 -19 12 -35 19 -35 8 0 21 -7
30 -16 14 -14 22 -15 59 -4 38 10 47 10 70 -5 31 -21 33 -34 6 -62 -22 -24
-79 -40 -89 -25 -3 6 -19 14 -34 17 -42 11 -36 -26 9 -47 32 -15 40 -15 89 -1
39 11 56 22 61 37 4 11 10 23 15 26 16 11 -11 79 -34 86 -12 4 -25 11 -28 16
-3 5 -24 4 -51 -2 -70 -18 -97 1 -82 56 7 25 85 55 92 35 2 -6 10 -11 18 -11
8 0 14 -4 14 -9 0 -5 8 -7 19 -4 13 3 17 11 14 24 -3 10 -9 17 -13 14 -4 -2
-16 5 -28 15 -12 11 -22 20 -24 19 -2 0 -26 -7 -54 -16z"/>
<path d="M5102 6818 c-32 -102 -62 -242 -55 -248 16 -15 187 -50 197 -40 16
16 -2 25 -86 45 l-77 18 6 31 c12 63 16 65 78 48 49 -14 58 -14 65 -1 8 11 -3
18 -51 32 l-61 18 5 41 c3 22 8 42 11 45 4 5 96 -15 159 -33 12 -4 17 0 17 14
0 15 -16 23 -85 40 -47 12 -92 22 -100 22 -7 0 -18 -15 -23 -32z"/>
<path d="M3535 6751 c-4 -17 -11 -31 -16 -31 -5 0 -8 -3 -7 -7 2 -11 -24 -66
-35 -74 -5 -3 -8 -10 -8 -15 1 -5 -4 -9 -11 -9 -7 0 -21 26 -31 57 -14 41 -23
55 -34 51 -17 -7 -13 -27 22 -123 13 -36 31 -86 40 -112 10 -27 22 -48 27 -48
17 0 19 28 4 65 -14 33 -21 75 -13 75 1 0 20 -9 42 -20 22 -11 45 -20 52 -20
7 0 13 -5 13 -12 0 -6 3 -8 6 -5 4 3 16 0 28 -8 22 -16 56 -20 56 -7 0 16 -17
30 -52 43 -21 7 -38 16 -38 20 0 4 -13 10 -29 14 -27 6 -47 36 -32 50 3 4 6
10 7 13 1 12 28 67 36 72 16 12 13 54 -4 58 -11 2 -18 -6 -23 -27z"/>
<path d="M3283 6674 c-3 -9 9 -47 27 -85 19 -38 31 -72 27 -75 -3 -4 -43 6
-88 22 -58 21 -84 35 -92 52 -10 21 -27 28 -39 16 -3 -3 7 -31 22 -62 15 -31
42 -91 60 -132 19 -41 35 -77 36 -78 1 -2 9 0 18 5 13 7 10 19 -20 86 -20 43
-33 81 -30 84 3 3 42 -7 87 -23 60 -21 84 -35 92 -52 10 -21 37 -28 39 -9 1
14 -117 266 -125 267 -4 0 -10 -7 -14 -16z"/>
<path d="M5592 6550 c-34 -71 -62 -131 -62 -133 0 -10 181 -87 190 -82 20 12
8 23 -65 58 -41 20 -75 40 -75 43 0 4 23 56 50 116 46 99 53 128 31 128 -4 0
-36 -58 -69 -130z"/>
<path d="M5356 6635 c-3 -9 0 -18 7 -20 6 -2 42 -15 79 -28 63 -23 67 -23 71
-6 4 15 -8 22 -62 40 -36 12 -71 24 -77 26 -6 2 -14 -3 -18 -12z"/>
<path d="M2951 6509 c-43 -25 -50 -33 -41 -44 9 -11 17 -12 31 -5 16 9 25 -2
75 -85 54 -91 56 -96 38 -110 -14 -10 -16 -16 -7 -25 8 -9 23 -6 61 16 53 29
60 57 14 52 -22 -3 -32 8 -78 87 -53 88 -53 90 -34 106 15 13 17 19 7 27 -9 8
-27 3 -66 -19z"/>
<path d="M3915 6516 c-568 -129 -1080 -430 -1440 -848 -415 -481 -629 -1022
-661 -1666 l-7 -143 29 7 c77 18 74 14 74 116 0 324 99 727 260 1053 205 418
496 751 880 1010 273 183 575 311 898 380 l82 18 0 48 c0 27 -3 49 -7 48 -5 0
-53 -11 -108 -23z"/>
<path d="M4910 6491 l0 -48 108 -22 c640 -134 1231 -542 1602 -1106 40 -60 83
-131 96 -157 13 -27 29 -48 34 -48 5 0 20 19 33 41 l25 41 -36 62 c-55 94
-143 223 -213 311 -85 109 -274 300 -389 397 -338 283 -793 495 -1227 572
l-33 6 0 -49z"/>
<path d="M5937 6516 c-3 -8 1 -17 9 -20 8 -3 14 -10 14 -15 0 -8 -92 -173
-106 -189 -1 -2 -11 1 -22 7 -15 8 -21 7 -25 -4 -4 -9 12 -25 44 -46 42 -26
52 -30 60 -18 6 9 4 18 -6 25 -8 6 -15 14 -15 18 0 4 23 48 52 97 45 77 56 89
77 87 41 -5 34 19 -15 46 -54 30 -60 31 -67 12z"/>
<path d="M4240 6403 c-591 -60 -1120 -311 -1535 -727 -323 -324 -543 -713
-655 -1156 -43 -171 -60 -288 -67 -457 -6 -148 -5 -152 14 -147 18 5 21 17 27
122 87 1498 1465 2571 2926 2281 477 -95 908 -327 1255 -674 178 -178 345
-403 432 -579 15 -31 30 -56 34 -56 4 0 13 7 20 16 11 14 8 26 -25 88 -105
192 -265 404 -429 568 -401 399 -903 643 -1467 713 -113 14 -428 19 -530 8z"/>
<path d="M6067 6290 c-69 -95 -83 -121 -72 -130 10 -8 24 4 64 60 29 39 56 68
62 64 6 -3 8 -12 5 -20 -3 -8 -2 -14 2 -14 4 0 7 -12 7 -27 -1 -16 1 -32 4
-38 11 -19 10 -70 -1 -93 -9 -17 -9 -25 0 -34 6 -6 13 -10 15 -7 48 59 165
234 161 240 -11 18 -25 7 -70 -53 -48 -66 -66 -77 -70 -43 -1 11 -5 38 -8 60
-4 22 -9 51 -11 65 -2 14 3 35 11 47 17 27 17 30 0 36 -8 3 -44 -37 -99 -113z"/>
<path d="M2643 6302 c-16 -10 147 -238 168 -236 18 1 159 103 159 115 0 24
-27 16 -82 -25 -34 -25 -67 -46 -72 -46 -6 0 -42 45 -81 100 -38 55 -72 100
-75 100 -3 0 -11 -4 -17 -8z"/>
<path d="M6285 6129 c-74 -85 -95 -113 -86 -122 9 -9 23 -1 58 36 25 27 48 45
52 42 3 -4 7 -34 9 -68 2 -34 4 -75 5 -92 1 -16 6 -33 11 -37 12 -8 38 11 31
22 -9 15 -13 136 -5 150 6 10 29 15 72 16 35 1 65 3 68 4 3 1 12 3 20 4 8 0
15 8 15 16 0 12 -13 15 -60 14 -33 -1 -77 -4 -98 -7 -21 -2 -40 0 -43 5 -3 5
12 31 35 58 33 39 38 50 27 59 -10 9 -34 -13 -111 -100z"/>
<path d="M4256 6148 c17 -171 19 -181 37 -192 36 -22 40 15 21 202 -5 50 -7
52 -35 52 l-29 0 6 -62z"/>
<path d="M4738 6155 c-31 -31 -44 -75 -58 -195 -22 -186 -82 -383 -169 -553
l-48 -92 -47 -1 c-99 -3 -123 -39 -128 -192 l-3 -102 -32 -11 c-18 -6 -52 -32
-75 -58 -28 -31 -57 -53 -83 -61 -85 -26 -130 -81 -155 -187 -14 -63 -58 -126
-101 -149 -37 -18 -130 -21 -172 -5 -85 33 -137 3 -211 -121 -72 -121 -82
-131 -140 -146 -27 -7 -69 -26 -92 -42 -24 -16 -46 -25 -49 -19 -4 5 -30 9
-59 9 -55 0 -108 -26 -148 -73 -22 -25 -22 -26 -1 -49 18 -21 14 -21 -46 -7
-59 13 -133 -2 -235 -47 -563 -251 -886 -353 -1441 -454 -236 -43 -316 -65
-420 -114 -198 -94 -307 -251 -307 -446 -1 -149 56 -272 179 -392 114 -109
275 -198 508 -278 461 -159 954 -245 1601 -281 234 -13 1263 -7 1794 10 173 6
500 15 725 21 2111 54 2096 53 2420 111 528 93 745 268 745 600 0 140 -40 281
-134 474 -76 154 -164 294 -348 551 -345 482 -474 736 -523 1033 -20 116 -16
323 6 396 7 22 13 83 13 135 1 76 -3 101 -18 126 -74 123 -265 61 -400 -130
-24 -33 -78 -124 -120 -200 -104 -187 -142 -241 -224 -317 -84 -77 -176 -128
-297 -165 -78 -24 -108 -27 -225 -28 -111 0 -149 3 -213 22 -208 60 -353 179
-482 396 -25 42 -90 171 -144 286 -103 218 -178 350 -264 460 -139 179 -277
310 -326 310 -17 0 -38 -10 -53 -25z"/>
<path d="M3880 6141 c0 -5 5 -22 11 -38 6 -15 30 -98 54 -183 23 -85 58 -211
78 -280 20 -69 44 -155 54 -192 18 -69 36 -89 59 -66 13 14 -13 126 -101 428
-109 376 -95 340 -127 340 -15 0 -28 -4 -28 -9z"/>
<path d="M5055 6140 c3 -5 8 -10 11 -10 2 0 4 5 4 10 0 6 -5 10 -11 10 -5 0
-7 -4 -4 -10z"/>
<path d="M2577 6077 c-42 -38 -55 -56 -48 -66 7 -11 22 -3 70 39 57 50 69 69
45 77 -5 1 -35 -21 -67 -50z"/>
<path d="M3624 6059 l-20 -10 22 -47 c12 -26 31 -74 43 -107 11 -33 47 -123
81 -199 33 -77 60 -146 60 -153 0 -7 15 -45 34 -85 42 -88 54 -117 99 -233 35
-89 86 -207 92 -213 6 -6 45 19 45 28 0 6 -16 44 -35 86 -19 41 -35 80 -35 85
0 5 -4 17 -10 27 -5 9 -23 53 -40 97 -17 44 -47 113 -66 153 -18 40 -34 78
-34 85 0 6 -6 23 -13 37 -8 14 -18 39 -24 55 -6 17 -28 68 -48 115 -20 47 -43
105 -51 130 -23 66 -66 160 -73 159 -3 0 -15 -5 -27 -10z"/>
<path d="M2287 5981 c-70 -72 -77 -85 -53 -98 8 -4 55 -48 106 -97 50 -48 95
-84 99 -80 4 5 36 39 71 77 49 52 61 70 52 79 -9 9 -25 -1 -70 -45 -32 -31
-62 -57 -68 -57 -6 0 -22 13 -37 28 l-27 28 45 44 c48 47 53 58 31 66 -8 3
-32 -14 -57 -41 l-44 -46 -34 35 -34 35 58 60 c50 52 63 81 36 81 -4 0 -38
-31 -74 -69z"/>
<path d="M6535 5990 c-36 -38 -34 -88 5 -125 48 -46 38 -100 -17 -103 -31 -1
-73 54 -69 91 4 31 -16 54 -30 35 -19 -26 -9 -76 23 -116 61 -76 154 -55 159
36 1 29 -5 44 -29 69 -35 37 -41 67 -18 87 25 21 54 15 83 -18 18 -21 26 -40
24 -58 -4 -32 14 -52 29 -34 21 24 10 72 -27 116 -45 55 -93 62 -133 20z"/>
<path d="M5359 5829 c-17 -34 -19 -47 -10 -65 6 -13 14 -24 19 -24 14 0 64
100 58 115 -11 30 -45 16 -67 -26z"/>
<path d="M2197 5814 c-3 -3 -18 -6 -33 -6 -23 -1 -39 -14 -76 -61 -26 -33 -45
-63 -42 -68 2 -4 55 -47 115 -95 84 -66 113 -84 119 -73 11 17 7 22 -45 60
-49 35 -50 56 -2 57 51 0 117 8 123 15 3 3 12 3 19 1 13 -5 29 22 17 30 -6 4
-87 0 -87 -4 0 -1 -10 -3 -23 -4 -26 -3 -39 11 -24 26 6 6 7 21 3 37 -5 14 -6
31 -4 36 4 12 -52 57 -60 49z m15 -48 c24 -11 18 -48 -17 -95 -16 -22 -32 -41
-35 -40 -3 0 -21 12 -40 28 l-34 29 36 45 c36 43 53 50 90 33z"/>
<path d="M3234 5786 c-3 -8 20 -51 50 -96 31 -45 56 -83 56 -86 0 -2 51 -81
113 -174 61 -93 130 -198 152 -232 40 -64 70 -83 81 -53 7 18 -23 70 -184 315
-64 96 -140 212 -170 258 -53 81 -85 103 -98 68z"/>
<path d="M4315 5638 c5 -100 22 -198 34 -198 4 0 16 6 26 14 17 12 17 18 7 71
-7 32 -12 83 -12 112 0 64 -13 93 -41 93 -18 0 -19 -5 -14 -92z"/>
<path d="M3016 5702 c-15 -18 -15 -20 2 -35 23 -21 36 -21 52 -2 10 13 10 19
-5 35 -22 25 -28 25 -49 2z"/>
<path d="M5937 5535 c-43 -47 -96 -107 -117 -133 -21 -26 -70 -81 -109 -122
-39 -41 -71 -80 -71 -86 0 -5 6 -18 13 -28 11 -16 22 -7 112 89 54 59 108 119
120 134 11 15 55 65 97 111 73 79 77 85 61 102 -9 10 -19 18 -22 18 -3 0 -41
-38 -84 -85z"/>
<path d="M5673 5602 c-12 -9 -143 -192 -143 -201 1 -3 7 -17 14 -30 l13 -23
23 33 c13 19 47 66 77 106 29 39 53 80 53 91 0 21 -21 34 -37 24z"/>
<path d="M6935 5596 c-11 -8 -66 -43 -122 -79 -76 -49 -101 -70 -97 -82 6 -16
13 -13 100 42 20 13 24 10 54 -37 26 -41 35 -48 46 -39 12 10 12 16 -2 38 -50
76 -49 67 -7 95 l38 27 21 -26 c17 -22 23 -24 32 -12 9 10 6 22 -14 50 -13 20
-26 37 -27 36 -1 0 -11 -6 -22 -13z"/>
<path d="M1940 5535 c-16 -24 -30 -48 -30 -53 0 -17 28 -22 34 -6 8 22 19 18
115 -44 78 -50 88 -60 79 -76 -8 -13 -7 -21 3 -27 9 -5 23 7 47 43 27 39 31
52 21 59 -8 5 -20 2 -30 -7 -15 -14 -25 -10 -100 37 -106 66 -103 63 -90 87 8
16 7 21 -4 26 -9 3 -25 -10 -45 -39z"/>
<path d="M3157 5516 c-7 -17 96 -159 276 -384 20 -26 45 -58 54 -72 33 -47
118 -155 146 -185 15 -16 35 -43 44 -60 22 -43 64 -85 85 -85 25 0 23 35 -3
68 -11 15 -33 45 -50 67 -16 22 -49 65 -74 95 -24 30 -73 93 -107 140 -34 47
-77 102 -95 123 -18 21 -78 98 -133 172 -97 131 -129 158 -143 121z"/>
<path d="M2777 5480 c-13 -18 -9 -25 47 -83 85 -87 294 -312 405 -435 92 -101
121 -119 129 -79 3 17 -96 133 -272 317 -45 47 -122 129 -171 183 -104 115
-118 125 -138 97z"/>
<path d="M6170 5349 c-30 -27 -84 -78 -120 -112 -36 -35 -109 -103 -163 -152
l-98 -89 20 -20 21 -20 27 25 c16 14 59 55 98 90 38 35 99 92 135 126 36 33
91 85 123 114 54 49 56 53 41 71 -10 10 -20 18 -23 18 -3 0 -31 -23 -61 -51z"/>
<path d="M1797 5285 l-46 -93 22 -14 c12 -8 71 -38 130 -68 91 -46 109 -53
117 -40 7 12 -2 21 -45 43 -30 15 -55 32 -55 37 0 6 11 33 25 60 29 58 29 56
10 64 -11 4 -23 -10 -42 -49 -15 -30 -32 -55 -39 -55 -17 0 -74 30 -74 40 0 4
16 37 35 73 39 71 41 82 22 90 -9 3 -29 -26 -60 -88z"/>
<path d="M2569 5219 c-13 -26 -23 -16 146 -144 72 -55 132 -102 135 -105 3 -4
25 -20 50 -35 25 -15 64 -44 87 -64 44 -38 86 -70 178 -136 30 -22 90 -68 132
-102 42 -35 80 -63 83 -63 4 0 14 8 23 18 14 16 10 22 -66 85 -45 37 -136 108
-202 157 -66 49 -131 98 -145 109 -14 10 -68 51 -120 89 -52 39 -130 98 -174
132 -107 82 -113 85 -127 59z"/>
<path d="M6435 5002 c-34 -18 -51 -34 -53 -49 -5 -32 25 -30 87 3 45 25 48 29
39 50 -6 13 -14 24 -17 24 -3 0 -28 -13 -56 -28z"/>
<path d="M2420 4970 c-15 -27 -18 -24 255 -191 39 -23 107 -66 151 -96 81 -53
114 -60 114 -24 0 16 -127 103 -290 201 -30 18 -86 53 -123 77 -88 57 -93 59
-107 33z"/>
<path d="M1655 4830 c-4 -6 -11 -8 -16 -5 -5 4 -9 1 -9 -4 0 -6 -7 -11 -15
-11 -9 0 -20 -20 -30 -55 -15 -51 -15 -57 1 -85 20 -33 70 -56 89 -40 6 5 15
7 18 3 4 -3 7 -1 7 5 0 7 7 12 15 12 8 0 19 17 25 43 7 23 21 49 32 58 23 18
58 14 58 -6 0 -7 4 -15 10 -17 14 -5 -10 -88 -26 -88 -8 0 -14 -4 -14 -10 0
-5 -7 -10 -15 -10 -8 0 -15 -6 -15 -14 0 -8 7 -16 15 -20 8 -3 15 -1 15 4 0 6
7 10 15 10 8 0 15 5 15 10 0 6 5 9 11 8 7 -2 20 23 29 55 10 31 14 57 9 57 -5
0 -9 7 -9 15 0 8 -4 15 -10 15 -5 0 -10 6 -10 14 0 17 -44 29 -73 20 -33 -10
-54 -36 -66 -80 -8 -31 -17 -43 -35 -48 -34 -8 -55 2 -62 30 -6 25 13 97 25
90 12 -8 54 31 47 43 -9 14 -23 14 -31 1z"/>
<path d="M2266 4592 c-3 -3 -6 -16 -6 -28 0 -20 11 -26 88 -49 48 -15 163 -51
256 -82 154 -51 170 -54 184 -39 23 22 5 37 -78 64 -36 12 -85 29 -109 37 -25
9 -81 27 -125 40 -45 13 -109 33 -143 43 -34 11 -64 17 -67 14z"/>
<path d="M1534 4566 c-3 -8 4 -25 15 -37 11 -12 23 -31 27 -41 3 -10 10 -18
15 -18 5 0 9 -5 9 -10 0 -6 9 -21 20 -32 20 -21 22 -45 4 -41 -5 0 -35 4 -66
8 -48 6 -58 5 -58 -7 0 -22 279 -75 291 -56 11 17 -5 25 -63 33 -52 7 -70 22
-45 37 9 4 23 15 31 23 8 8 19 15 25 15 6 0 11 4 11 9 0 5 10 13 22 17 30 9
61 40 53 53 -11 19 -30 11 -80 -36 -7 -7 -15 -9 -19 -6 -3 4 -6 1 -6 -5 0 -7
-7 -12 -15 -12 -8 0 -15 -4 -15 -10 0 -31 -62 9 -74 48 -4 12 -12 22 -17 22
-5 0 -9 5 -9 11 0 10 -37 49 -47 49 -2 0 -6 -7 -9 -14z"/>
<path d="M2933 4354 c-11 -30 13 -37 57 -18 33 15 38 20 23 25 -33 13 -73 10
-80 -7z"/>
<path d="M1487 4279 c-4 -14 9 -18 84 -24 67 -5 89 -10 89 -21 0 -8 -4 -14 -9
-14 -4 0 -22 -13 -39 -30 -18 -16 -35 -30 -40 -30 -4 0 -14 -9 -22 -20 -9 -13
-26 -20 -47 -20 -45 0 -45 -27 0 -34 70 -10 261 -25 265 -21 2 2 2 11 -1 18
-4 10 -31 17 -84 22 -43 4 -82 9 -86 12 -7 4 46 63 58 63 3 0 19 14 37 30 19
19 41 30 59 30 18 0 29 5 29 14 0 15 -45 22 -207 35 -71 6 -82 4 -86 -10z"/>
<path d="M2317 4283 c-15 -14 -6 -42 16 -49 12 -4 79 -21 148 -38 l125 -32 45
20 44 20 -35 7 c-56 11 -159 36 -240 58 -82 23 -93 24 -103 14z"/>
<path d="M1470 3910 c0 -47 3 -60 15 -60 8 0 15 9 15 20 0 19 7 20 115 20 108
0 115 -1 115 -20 0 -11 7 -20 15 -20 12 0 15 13 15 60 0 47 -3 60 -15 60 -8 0
-15 -9 -15 -20 0 -19 -7 -20 -115 -20 -108 0 -115 1 -115 20 0 11 -7 20 -15
20 -12 0 -15 -13 -15 -60z"/>
<path d="M1958 2033 c6 -10 46 -61 89 -113 415 -499 959 -855 1573 -1029 160
-45 400 -93 413 -81 4 4 5 25 1 48 l-6 40 -92 17 c-491 89 -966 304 -1356 615
-125 100 -324 292 -426 411 -62 73 -79 88 -111 93 -21 4 -51 9 -66 12 -26 5
-28 4 -19 -13z"/>
<path d="M6919 2030 l-55 -5 -91 -105 c-444 -515 -1049 -865 -1724 -997 l-139
-28 0 -47 c0 -45 2 -48 23 -44 12 3 63 13 112 21 570 101 1123 380 1572 793
128 118 369 391 361 409 -1 4 -28 6 -59 3z"/>
<path d="M6747 2023 c-40 -3 -46 -7 -37 -18 7 -9 20 -11 38 -6 15 4 32 6 38 4
6 -2 14 3 17 12 4 8 3 14 -1 13 -4 -1 -29 -3 -55 -5z"/>
<path d="M6205 2013 c-11 -3 -38 -22 -60 -42 -188 -172 -524 -369 -800 -469
-108 -39 -379 -112 -416 -112 -16 0 -19 -8 -19 -50 0 -27 2 -50 4 -50 26 0
234 49 323 76 380 115 724 309 1018 574 39 35 72 67 73 72 4 8 -89 9 -123 1z"/>
<path d="M6381 1989 c-18 -23 -21 -33 -12 -42 9 -9 21 -2 52 31 l41 42 -29 -1
c-19 0 -36 -10 -52 -30z"/>
<path d="M6556 2003 c3 -12 -10 -32 -35 -57 -32 -31 -38 -42 -29 -53 9 -11 20
-6 58 32 l46 45 32 -31 33 -32 -24 -26 c-56 -60 -82 -94 -82 -104 0 -29 28
-11 89 57 l67 75 -58 55 c-58 55 -106 74 -97 39z"/>
<path d="M5970 1973 c-90 -72 -285 -193 -413 -256 -532 -261 -1111 -323 -1677
-182 -254 64 -540 190 -750 331 -79 53 -128 79 -157 84 -24 4 -43 4 -43 1 1
-11 196 -143 300 -203 731 -421 1625 -443 2381 -57 129 66 355 212 429 278
l45 40 -35 0 c-26 1 -47 -9 -80 -36z"/>
<path d="M2356 1982 c-3 -5 10 -24 29 -42 26 -26 33 -39 30 -62 -5 -36 -8 -40
-37 -43 -13 -1 -36 11 -55 28 -27 25 -30 33 -23 57 6 20 4 32 -5 40 -18 15
-28 -3 -30 -51 -2 -31 4 -44 32 -71 98 -95 218 19 124 116 -34 35 -55 44 -65
28z"/>
<path d="M5540 1985 c0 -3 12 -24 26 -46 17 -27 30 -39 40 -35 9 3 18 6 20 6
8 0 4 29 -8 55 -9 19 -19 25 -45 25 -18 0 -33 -2 -33 -5z"/>
<path d="M2512 1948 c2 -13 10 -23 18 -23 9 0 15 10 16 23 1 15 -4 22 -18 22
-14 0 -19 -6 -16 -22z"/>
<path d="M2670 1965 c0 -16 206 -181 330 -265 289 -194 663 -345 998 -404 l32
-5 0 48 0 48 -87 18 c-352 69 -741 251 -1048 490 -77 60 -83 62 -152 69 -40 3
-73 4 -73 1z"/>
<path d="M4734 1953 c3 -10 10 -56 17 -103 6 -47 17 -114 23 -150 12 -59 15
-65 39 -68 31 -4 32 5 16 78 -5 25 -14 80 -19 123 -15 131 -17 137 -51 137
-24 0 -29 -4 -25 -17z"/>
<path d="M4354 1928 c2 -18 4 -37 5 -41 0 -5 11 -7 24 -5 18 2 23 10 25 41 3
35 2 37 -27 37 -27 0 -29 -3 -27 -32z"/>
<path d="M4007 1908 c-3 -24 -13 -74 -23 -113 -29 -122 -29 -131 -3 -138 13
-4 25 -4 27 -2 6 5 61 257 62 278 0 12 -8 17 -29 17 -26 0 -29 -4 -34 -42z"/>
<path d="M3335 1930 c-8 -13 13 -40 31 -40 12 0 34 29 34 44 0 11 -59 6 -65
-4z"/>
<path d="M3617 1863 c-24 -72 -25 -79 -9 -91 9 -7 20 -11 25 -9 9 3 67 151 67
169 0 4 -13 8 -29 8 -27 0 -30 -5 -54 -77z"/>
<path d="M5061 1918 c2 -49 54 -213 69 -215 37 -7 42 11 21 83 -37 132 -45
149 -69 152 -17 3 -22 -1 -21 -20z"/>
<path d="M2607 1922 c-6 -8 0 -107 8 -138 7 -32 -12 -42 -94 -48 -41 -3 -78
-9 -84 -15 -17 -17 3 -30 41 -25 82 10 152 13 157 5 2 -5 -14 -30 -37 -55 -28
-33 -38 -50 -30 -58 14 -14 18 -11 120 106 74 84 89 106 78 115 -11 9 -22 2
-54 -34 -22 -25 -45 -45 -51 -45 -6 0 -11 15 -12 33 -2 87 -7 146 -13 156 -8
13 -23 14 -29 3z"/>
<path d="M6321 1758 c-45 -40 -57 -55 -49 -65 11 -13 12 -12 112 70 17 14 26
29 22 35 -12 19 -21 15 -85 -40z"/>
<path d="M2734 1654 c-43 -62 -79 -119 -79 -125 0 -32 26 -13 70 51 49 73 62
77 70 24 2 -16 7 -46 10 -68 3 -21 8 -42 11 -48 3 -5 -2 -20 -11 -34 -15 -23
-13 -44 4 -44 10 0 171 225 171 239 0 29 -33 5 -75 -54 -25 -36 -50 -65 -55
-65 -8 0 -15 33 -25 114 -3 21 -8 42 -11 47 -3 5 2 19 10 31 20 27 20 34 2 41
-8 3 -41 -35 -92 -109z"/>
<path d="M4362 1748 c-7 -7 -12 -39 -12 -75 0 -60 1 -63 24 -63 22 0 24 5 28
58 6 77 -10 110 -40 80z"/>
<path d="M6042 1706 c-90 -66 -86 -62 -78 -81 4 -12 19 -6 75 35 38 27 71 50
73 50 3 0 38 -47 79 -105 68 -97 87 -115 96 -89 3 10 -153 237 -165 241 -4 1
-40 -22 -80 -51z"/>
<path d="M3056 1584 c-4 -10 0 -21 10 -29 15 -11 11 -21 -40 -109 -48 -82 -60
-95 -72 -85 -17 14 -41 -2 -29 -20 11 -19 86 -53 102 -46 14 5 14 8 -2 25 -20
22 -23 13 39 123 44 77 51 85 69 76 15 -8 22 -8 28 2 10 16 8 19 -52 53 -41
23 -47 25 -53 10z"/>
<path d="M5820 1563 c-25 -14 -46 -27 -48 -28 -1 -1 0 -9 4 -18 5 -13 10 -14
26 -6 11 6 21 9 22 7 10 -11 106 -180 106 -185 0 -3 -8 -12 -17 -19 -14 -10
-15 -15 -6 -24 8 -9 23 -5 62 16 54 31 61 49 18 49 -23 0 -34 12 -77 88 -27
48 -50 90 -50 94 0 3 7 11 17 18 15 11 11 35 -5 35 -4 0 -27 -12 -52 -27z"/>
<path d="M3244 1479 c-9 -15 0 -21 78 -55 37 -16 68 -32 68 -36 0 -3 -23 -56
-50 -118 -46 -101 -53 -130 -31 -130 9 0 13 8 81 154 28 60 49 110 47 112 -4
5 -176 84 -182 84 -2 0 -7 -5 -11 -11z"/>
<path d="M5670 1480 c-11 -7 -8 -21 18 -78 32 -68 38 -92 26 -92 -15 0 -129
45 -132 51 -2 5 -9 6 -16 3 -6 -2 -19 9 -27 25 -10 22 -18 28 -28 22 -20 -13
96 -271 122 -271 9 0 17 2 17 4 0 2 -16 39 -35 81 -28 60 -33 80 -23 86 7 4
15 4 18 0 3 -5 37 -19 77 -31 57 -19 73 -28 78 -47 5 -22 29 -31 39 -15 3 6
-105 257 -117 268 -1 2 -9 -1 -17 -6z"/>
<path d="M5420 1377 c0 -2 9 -30 20 -62 14 -41 17 -62 10 -69 -7 -7 -13 -7
-18 -1 -8 12 -64 39 -74 37 -5 -1 -8 2 -8 7 0 5 -13 12 -30 16 -16 4 -30 10
-30 15 0 4 -9 6 -19 3 -22 -6 -17 -33 5 -33 8 0 14 -4 14 -8 0 -5 18 -14 40
-21 22 -6 40 -16 40 -21 0 -6 6 -10 14 -10 26 0 28 -37 4 -82 -13 -24 -27 -46
-33 -50 -5 -4 -6 -8 -1 -8 5 0 3 -7 -4 -15 -13 -16 -6 -35 15 -35 7 0 16 14
20 30 4 17 11 30 16 30 5 0 9 5 9 12 0 23 42 98 55 98 7 0 21 -26 30 -59 14
-46 22 -57 35 -54 16 4 13 19 -28 144 -37 109 -50 139 -64 139 -10 0 -18 -2
-18 -3z"/>
<path d="M4080 1080 l0 -290 40 0 40 0 0 290 0 290 -40 0 -40 0 0 -290z"/>
<path d="M4200 1080 l0 -290 40 0 40 0 0 290 0 290 -40 0 -40 0 0 -290z"/>
<path d="M4320 1080 l0 -290 35 0 35 0 0 290 0 290 -35 0 -35 0 0 -290z"/>
<path d="M4440 1080 l0 -290 35 0 35 0 0 290 0 290 -35 0 -35 0 0 -290z"/>
<path d="M4550 1080 l0 -290 40 0 40 0 0 290 0 290 -40 0 -40 0 0 -290z"/>
<path d="M4670 1080 l0 -290 40 0 40 0 0 290 0 290 -40 0 -40 0 0 -290z"/>
<path d="M4790 1080 l0 -290 35 0 35 0 0 290 0 290 -35 0 -35 0 0 -290z"/>
<path d="M3727 1293 c-15 -14 -4 -20 71 -38 42 -10 80 -21 84 -24 7 -6 -6 -78
-15 -87 -3 -3 -31 2 -63 10 -45 12 -60 12 -66 3 -10 -16 -1 -22 57 -37 28 -7
53 -15 56 -16 6 -3 -7 -84 -14 -90 -1 -2 -38 6 -81 16 -78 19 -100 18 -93 -3
4 -13 189 -59 198 -49 8 9 72 272 67 277 -5 5 -165 45 -180 45 -8 0 -18 -3
-21 -7z"/>
<path d="M5093 1277 c-25 -5 -43 -16 -43 -23 0 -8 -4 -14 -9 -14 -15 0 -23
-37 -16 -69 4 -18 18 -35 39 -46 28 -15 40 -16 77 -7 28 7 45 8 47 2 2 -6 10
-10 17 -10 15 0 29 -44 15 -48 -6 -2 -10 -10 -10 -17 0 -27 -104 -29 -121 -2
-4 5 -12 6 -18 3 -16 -10 -13 -36 4 -36 8 0 15 -5 15 -11 0 -5 4 -8 9 -5 5 4
11 1 13 -5 5 -16 118 10 118 27 0 7 6 14 12 16 20 7 16 88 -5 99 -9 6 -23 16
-29 23 -10 11 -22 11 -63 0 -31 -9 -51 -10 -53 -4 -2 6 -10 10 -17 10 -15 0
-29 44 -15 48 6 2 10 10 10 17 0 7 15 16 34 19 38 7 86 -1 86 -15 0 -5 7 -9
15 -9 26 0 16 35 -14 53 -32 19 -37 19 -98 4z"/>
<path d="M3457 1241 c-3 -14 11 -23 74 -43 67 -22 78 -24 84 -10 7 19 14 15
-77 45 -70 23 -77 24 -81 8z"/>
</g>
</svg>
